<svg xmlns="http://www.w3.org/2000/svg" xmlns:xlink="http://www.w3.org/1999/xlink" width="500" zoomAndPan="magnify" viewBox="0 0 375 374.999991" height="500" preserveAspectRatio="xMidYMid meet" version="1.0"><defs><clipPath id="b211225251"><path d="M 191 34.714844 L 244 34.714844 L 244 85 L 191 85 Z M 191 34.714844 " clip-rule="nonzero"/></clipPath></defs><path fill="#fab918" d="M 334.316406 251.171875 C 331.738281 247.976562 327.460938 246.699219 323.558594 247.964844 C 301.109375 255.253906 277.042969 256.277344 253.9375 250.929688 C 183.792969 234.707031 139.925781 164.457031 156.152344 94.332031 C 159.152344 81.351562 164.0625 68.996094 170.75 57.621094 C 172.839844 54.085938 172.511719 49.625 169.933594 46.425781 C 167.371094 43.226562 163.09375 41.949219 159.179688 43.21875 C 134.941406 51.082031 112.941406 65.082031 95.546875 83.6875 C 77.609375 102.875 64.980469 126.617188 59.023438 152.34375 C 40.339844 233.078125 90.84375 313.972656 171.601562 332.648438 C 203.421875 340 236.007812 336.976562 265.835938 323.875 C 294.667969 311.226562 319.265625 289.378906 335.128906 262.363281 C 337.207031 258.828125 336.878906 254.367188 334.316406 251.171875 " fill-opacity="1" fill-rule="nonzero"/><path fill="#fab918" d="M 296.925781 130.617188 C 295.917969 127.105469 292.820312 124.601562 289.160156 124.34375 L 266.273438 122.800781 L 258.082031 102 C 256.78125 98.679688 253.570312 96.492188 249.996094 96.492188 C 246.414062 96.492188 243.214844 98.679688 241.902344 102 L 233.710938 122.800781 L 210.824219 124.34375 C 207.175781 124.601562 204.066406 127.105469 203.058594 130.617188 C 202.046875 134.128906 203.335938 137.90625 206.300781 140.058594 L 224.535156 153.300781 L 217.847656 176.050781 C 216.804688 179.625 218.140625 183.464844 221.179688 185.613281 C 224.21875 187.753906 228.289062 187.726562 231.304688 185.542969 L 249.996094 171.96875 L 268.679688 185.542969 C 270.210938 186.648438 271.996094 187.207031 273.796875 187.207031 C 275.546875 187.207031 277.296875 186.671875 278.804688 185.613281 C 281.84375 183.464844 283.179688 179.625 282.136719 176.050781 L 275.449219 153.300781 L 293.683594 140.058594 C 296.648438 137.90625 297.9375 134.128906 296.925781 130.617188 " fill-opacity="1" fill-rule="nonzero"/><g clip-path="url(#b211225251)"><path fill="#fab918" d="M 243.277344 53.453125 C 242.71875 51.519531 241.015625 50.148438 239.011719 50 L 226.429688 49.164062 L 221.933594 37.738281 C 221.214844 35.910156 219.453125 34.707031 217.496094 34.707031 C 215.527344 34.707031 213.777344 35.910156 213.046875 37.738281 L 208.550781 49.164062 L 195.984375 50 C 193.976562 50.148438 192.277344 51.519531 191.714844 53.453125 C 191.15625 55.382812 191.875 57.449219 193.503906 58.628906 L 203.519531 65.90625 L 199.835938 78.398438 C 199.265625 80.355469 200.003906 82.46875 201.671875 83.648438 C 203.347656 84.828125 205.574219 84.804688 207.238281 83.613281 L 217.496094 76.152344 L 227.765625 83.613281 C 228.59375 84.21875 229.578125 84.523438 230.574219 84.523438 C 231.523438 84.523438 232.496094 84.234375 233.320312 83.648438 C 234.988281 82.46875 235.726562 80.355469 235.144531 78.398438 L 231.472656 65.90625 L 241.488281 58.628906 C 243.117188 57.449219 243.835938 55.382812 243.277344 53.453125 " fill-opacity="1" fill-rule="nonzero"/></g><path fill="#fab918" d="M 336.367188 99.484375 C 336.027344 98.28125 334.972656 97.417969 333.71875 97.332031 L 325.890625 96.808594 L 323.097656 89.699219 C 322.648438 88.558594 321.550781 87.816406 320.335938 87.816406 C 319.109375 87.816406 318.015625 88.558594 317.566406 89.699219 L 314.769531 96.808594 L 306.953125 97.332031 C 305.703125 97.417969 304.632812 98.28125 304.292969 99.484375 C 303.941406 100.671875 304.390625 101.972656 305.398438 102.703125 L 311.632812 107.222656 L 309.347656 115.011719 C 308.984375 116.226562 309.445312 117.539062 310.492188 118.269531 C 311.523438 119.011719 312.921875 119 313.945312 118.246094 L 320.335938 113.601562 L 326.71875 118.246094 C 327.242188 118.621094 327.847656 118.816406 328.46875 118.816406 C 329.0625 118.816406 329.671875 118.632812 330.183594 118.269531 C 331.214844 117.539062 331.675781 116.226562 331.324219 115.011719 L 329.027344 107.222656 L 335.261719 102.703125 C 336.273438 101.972656 336.722656 100.671875 336.371094 99.484375 " fill-opacity="1" fill-rule="nonzero"/></svg>