<svg xmlns="http://www.w3.org/2000/svg" xmlns:xlink="http://www.w3.org/1999/xlink" width="500" zoomAndPan="magnify" viewBox="0 0 375 374.999991" height="500" preserveAspectRatio="xMidYMid meet" version="1.0"><defs><clipPath id="5859b5685e"><path d="M 183 76.371094 L 367.566406 76.371094 L 367.566406 262 L 183 262 Z M 183 76.371094 " clip-rule="nonzero"/></clipPath><clipPath id="95068c2af5"><path d="M 7.566406 152 L 321 152 L 321 331.371094 L 7.566406 331.371094 Z M 7.566406 152 " clip-rule="nonzero"/></clipPath></defs><g clip-path="url(#5859b5685e)"><path fill="#fbbe4b" d="M 367.425781 198.292969 C 354.71875 234.84375 319.484375 261.152344 277.972656 261.152344 C 225.773438 261.152344 183.464844 219.546875 183.464844 168.242188 C 183.496094 121.738281 218.222656 83.238281 263.539062 76.390625 C 249.523438 90.757812 240.878906 110.28125 240.878906 131.757812 C 240.878906 175.921875 277.300781 211.734375 322.234375 211.734375 C 338.972656 211.734375 354.496094 206.777344 367.425781 198.292969 Z M 367.425781 198.292969 " fill-opacity="1" fill-rule="evenodd"/></g><g clip-path="url(#95068c2af5)"><path fill="#e9ecef" d="M 269.75 221.082031 C 262.164062 199.320312 241.199219 183.636719 216.492188 183.636719 C 210.925781 183.636719 205.546875 184.4375 200.492188 185.910156 C 185.960938 165.746094 162.054688 152.558594 135.007812 152.558594 C 105.4375 152.558594 79.671875 168.339844 65.75 191.734375 C 50.132812 195.765625 38.738281 208.40625 38.738281 223.386719 C 38.738281 224.441406 38.804688 225.464844 38.929688 226.457031 C 20.335938 235.546875 7.566406 254.335938 7.566406 276.066406 C 7.566406 306.628906 32.753906 331.402344 63.832031 331.402344 L 263.730469 331.402344 C 294.808594 331.402344 320.027344 306.628906 320.027344 276.066406 C 320.027344 247.515625 298.007812 224.027344 269.75 221.082031 Z M 269.75 221.082031 " fill-opacity="1" fill-rule="evenodd"/></g></svg>