<svg xmlns="http://www.w3.org/2000/svg" xmlns:xlink="http://www.w3.org/1999/xlink" width="500" zoomAndPan="magnify" viewBox="0 0 375 374.999991" height="500" preserveAspectRatio="xMidYMid meet" version="1.0"><defs><clipPath id="af3b6702bd"><path d="M 28.996094 28.996094 L 267 28.996094 L 267 179 L 28.996094 179 Z M 28.996094 28.996094 " clip-rule="nonzero"/></clipPath><clipPath id="ba5aa15bc4"><path d="M 37 108 L 346.246094 108 L 346.246094 276 L 37 276 Z M 37 108 " clip-rule="nonzero"/></clipPath><clipPath id="8cd758eff0"><path d="M 37 284 L 303 284 L 303 346.246094 L 37 346.246094 Z M 37 284 " clip-rule="nonzero"/></clipPath></defs><g clip-path="url(#af3b6702bd)"><path fill="#ffac33" d="M 143.558594 46.621094 C 143.558594 46.621094 143.558594 28.996094 161.183594 28.996094 C 178.808594 28.996094 178.808594 46.621094 178.808594 46.621094 L 178.808594 64.246094 C 178.808594 64.246094 178.808594 81.871094 161.183594 81.871094 C 143.558594 81.871094 143.558594 64.246094 143.558594 64.246094 Z M 64.246094 143.558594 C 64.246094 143.558594 81.871094 143.558594 81.871094 161.183594 C 81.871094 178.808594 64.246094 178.808594 64.246094 178.808594 L 46.621094 178.808594 C 46.621094 178.808594 28.996094 178.808594 28.996094 161.183594 C 28.996094 143.558594 46.621094 143.558594 46.621094 143.558594 Z M 98.367188 82.25 C 98.367188 82.25 110.828125 94.710938 98.367188 107.171875 C 85.90625 119.632812 73.445312 107.171875 73.445312 107.171875 L 60.976562 94.71875 C 60.976562 94.71875 48.515625 82.257812 60.976562 69.789062 C 73.445312 57.328125 85.90625 69.789062 85.90625 69.789062 Z M 248.929688 107.171875 C 248.929688 107.171875 236.46875 119.632812 224.007812 107.171875 C 211.546875 94.710938 224.007812 82.25 224.007812 82.25 L 236.46875 69.789062 C 236.46875 69.789062 248.929688 57.328125 261.390625 69.789062 C 273.851562 82.25 261.390625 94.710938 261.390625 94.710938 Z M 248.929688 107.171875 " fill-opacity="1" fill-rule="nonzero"/></g><path fill="#ffac33" d="M 231.683594 161.183594 C 231.683594 162.339844 231.65625 163.492188 231.597656 164.644531 C 231.542969 165.796875 231.457031 166.945312 231.34375 168.09375 C 231.230469 169.242188 231.089844 170.386719 230.921875 171.527344 C 230.75 172.671875 230.554688 173.804688 230.328125 174.9375 C 230.105469 176.070312 229.851562 177.195312 229.570312 178.3125 C 229.292969 179.433594 228.984375 180.546875 228.648438 181.648438 C 228.3125 182.753906 227.953125 183.847656 227.5625 184.933594 C 227.175781 186.019531 226.757812 187.097656 226.316406 188.164062 C 225.875 189.230469 225.410156 190.285156 224.914062 191.328125 C 224.421875 192.371094 223.902344 193.398438 223.359375 194.417969 C 222.816406 195.433594 222.246094 196.4375 221.652344 197.429688 C 221.0625 198.417969 220.445312 199.394531 219.804688 200.351562 C 219.160156 201.3125 218.496094 202.253906 217.808594 203.179688 C 217.125 204.109375 216.414062 205.015625 215.679688 205.910156 C 214.949219 206.800781 214.195312 207.675781 213.421875 208.527344 C 212.648438 209.382812 211.851562 210.21875 211.035156 211.035156 C 210.21875 211.851562 209.382812 212.648438 208.527344 213.421875 C 207.675781 214.195312 206.800781 214.949219 205.910156 215.679688 C 205.015625 216.414062 204.109375 217.125 203.179688 217.808594 C 202.253906 218.496094 201.3125 219.160156 200.351562 219.804688 C 199.394531 220.445312 198.417969 221.0625 197.429688 221.652344 C 196.4375 222.246094 195.433594 222.816406 194.417969 223.359375 C 193.398438 223.902344 192.371094 224.421875 191.328125 224.914062 C 190.285156 225.410156 189.230469 225.875 188.164062 226.316406 C 187.097656 226.757812 186.019531 227.175781 184.933594 227.5625 C 183.847656 227.953125 182.753906 228.3125 181.648438 228.648438 C 180.546875 228.984375 179.433594 229.292969 178.3125 229.570312 C 177.195312 229.851562 176.070312 230.105469 174.9375 230.328125 C 173.804688 230.554688 172.671875 230.75 171.527344 230.921875 C 170.386719 231.089844 169.242188 231.230469 168.09375 231.34375 C 166.945312 231.457031 165.796875 231.542969 164.644531 231.597656 C 163.492188 231.65625 162.339844 231.683594 161.183594 231.683594 C 160.03125 231.683594 158.878906 231.65625 157.726562 231.597656 C 156.574219 231.542969 155.421875 231.457031 154.273438 231.34375 C 153.125 231.230469 151.980469 231.089844 150.839844 230.921875 C 149.699219 230.75 148.5625 230.554688 147.429688 230.328125 C 146.296875 230.105469 145.171875 229.851562 144.054688 229.570312 C 142.933594 229.292969 141.824219 228.984375 140.71875 228.648438 C 139.613281 228.3125 138.519531 227.953125 137.433594 227.5625 C 136.347656 227.175781 135.269531 226.757812 134.207031 226.316406 C 133.140625 225.875 132.085938 225.410156 131.042969 224.914062 C 130 224.421875 128.96875 223.902344 127.949219 223.359375 C 126.933594 222.816406 125.929688 222.246094 124.941406 221.652344 C 123.949219 221.0625 122.976562 220.445312 122.015625 219.804688 C 121.058594 219.160156 120.113281 218.496094 119.1875 217.808594 C 118.261719 217.125 117.351562 216.414062 116.460938 215.679688 C 115.566406 214.949219 114.695312 214.195312 113.839844 213.421875 C 112.984375 212.648438 112.148438 211.851562 111.332031 211.035156 C 110.515625 210.21875 109.722656 209.382812 108.945312 208.527344 C 108.171875 207.675781 107.417969 206.800781 106.6875 205.910156 C 105.957031 205.015625 105.246094 204.109375 104.558594 203.179688 C 103.871094 202.253906 103.207031 201.3125 102.566406 200.351562 C 101.925781 199.394531 101.308594 198.417969 100.714844 197.429688 C 100.121094 196.4375 99.554688 195.433594 99.007812 194.417969 C 98.464844 193.398438 97.945312 192.371094 97.453125 191.328125 C 96.960938 190.285156 96.492188 189.230469 96.050781 188.164062 C 95.609375 187.097656 95.195312 186.019531 94.804688 184.933594 C 94.417969 183.847656 94.054688 182.753906 93.71875 181.648438 C 93.386719 180.546875 93.078125 179.433594 92.796875 178.3125 C 92.515625 177.195312 92.265625 176.070312 92.039062 174.9375 C 91.8125 173.804688 91.617188 172.671875 91.449219 171.527344 C 91.277344 170.386719 91.136719 169.242188 91.023438 168.09375 C 90.910156 166.945312 90.824219 165.796875 90.769531 164.644531 C 90.710938 163.492188 90.683594 162.339844 90.683594 161.183594 C 90.683594 160.03125 90.710938 158.878906 90.769531 157.726562 C 90.824219 156.574219 90.910156 155.421875 91.023438 154.273438 C 91.136719 153.125 91.277344 151.980469 91.449219 150.839844 C 91.617188 149.699219 91.8125 148.5625 92.039062 147.429688 C 92.265625 146.296875 92.515625 145.171875 92.796875 144.054688 C 93.078125 142.933594 93.386719 141.824219 93.71875 140.71875 C 94.054688 139.613281 94.417969 138.519531 94.804688 137.433594 C 95.195312 136.347656 95.609375 135.269531 96.050781 134.207031 C 96.492188 133.140625 96.960938 132.085938 97.453125 131.042969 C 97.945312 130 98.464844 128.96875 99.007812 127.949219 C 99.554688 126.933594 100.121094 125.929688 100.714844 124.941406 C 101.308594 123.949219 101.925781 122.976562 102.566406 122.015625 C 103.207031 121.058594 103.871094 120.113281 104.558594 119.1875 C 105.246094 118.261719 105.957031 117.351562 106.6875 116.460938 C 107.417969 115.566406 108.171875 114.695312 108.945312 113.839844 C 109.722656 112.984375 110.515625 112.148438 111.332031 111.332031 C 112.148438 110.515625 112.984375 109.722656 113.839844 108.945312 C 114.695312 108.171875 115.566406 107.417969 116.460938 106.6875 C 117.351562 105.957031 118.261719 105.246094 119.1875 104.558594 C 120.113281 103.871094 121.058594 103.207031 122.015625 102.566406 C 122.976562 101.925781 123.949219 101.308594 124.941406 100.714844 C 125.929688 100.121094 126.933594 99.550781 127.949219 99.007812 C 128.96875 98.464844 130 97.945312 131.042969 97.453125 C 132.085938 96.960938 133.140625 96.492188 134.207031 96.050781 C 135.269531 95.609375 136.347656 95.195312 137.433594 94.804688 C 138.519531 94.417969 139.613281 94.054688 140.71875 93.71875 C 141.824219 93.386719 142.933594 93.078125 144.054688 92.796875 C 145.171875 92.515625 146.296875 92.265625 147.429688 92.039062 C 148.5625 91.8125 149.699219 91.617188 150.839844 91.449219 C 151.980469 91.277344 153.125 91.136719 154.273438 91.023438 C 155.421875 90.910156 156.574219 90.824219 157.726562 90.769531 C 158.878906 90.710938 160.03125 90.683594 161.183594 90.683594 C 162.339844 90.683594 163.492188 90.710938 164.644531 90.769531 C 165.796875 90.824219 166.945312 90.910156 168.09375 91.023438 C 169.242188 91.136719 170.386719 91.277344 171.527344 91.449219 C 172.671875 91.617188 173.804688 91.8125 174.9375 92.039062 C 176.070312 92.265625 177.195312 92.515625 178.3125 92.796875 C 179.433594 93.078125 180.546875 93.386719 181.648438 93.71875 C 182.753906 94.054688 183.847656 94.417969 184.933594 94.804688 C 186.019531 95.195312 187.097656 95.609375 188.164062 96.050781 C 189.230469 96.492188 190.285156 96.960938 191.328125 97.453125 C 192.371094 97.945312 193.398438 98.464844 194.417969 99.007812 C 195.433594 99.550781 196.4375 100.121094 197.429688 100.714844 C 198.417969 101.308594 199.394531 101.925781 200.351562 102.566406 C 201.3125 103.207031 202.253906 103.871094 203.179688 104.558594 C 204.109375 105.246094 205.015625 105.957031 205.910156 106.6875 C 206.800781 107.417969 207.675781 108.171875 208.527344 108.945312 C 209.382812 109.722656 210.21875 110.515625 211.035156 111.332031 C 211.851562 112.148438 212.648438 112.984375 213.421875 113.839844 C 214.195312 114.695312 214.949219 115.566406 215.679688 116.460938 C 216.414062 117.351562 217.125 118.261719 217.808594 119.1875 C 218.496094 120.113281 219.160156 121.058594 219.804688 122.015625 C 220.445312 122.976562 221.0625 123.949219 221.652344 124.941406 C 222.246094 125.929688 222.816406 126.933594 223.359375 127.949219 C 223.902344 128.96875 224.421875 130 224.914062 131.042969 C 225.410156 132.085938 225.875 133.140625 226.316406 134.207031 C 226.757812 135.269531 227.175781 136.347656 227.5625 137.433594 C 227.953125 138.519531 228.3125 139.613281 228.648438 140.71875 C 228.984375 141.824219 229.292969 142.933594 229.570312 144.054688 C 229.851562 145.171875 230.105469 146.296875 230.328125 147.429688 C 230.554688 148.5625 230.75 149.699219 230.921875 150.839844 C 231.089844 151.980469 231.230469 153.125 231.34375 154.273438 C 231.457031 155.421875 231.542969 156.574219 231.597656 157.726562 C 231.65625 158.878906 231.683594 160.03125 231.683594 161.183594 Z M 231.683594 161.183594 " fill-opacity="1" fill-rule="nonzero"/><g clip-path="url(#ba5aa15bc4)"><path fill="#e1e8ed" d="M 277.710938 141.796875 C 270.636719 141.796875 263.832031 142.84375 257.40625 144.792969 C 249.8125 123.5625 229.199219 108.308594 204.875 108.308594 C 178.800781 108.308594 156.964844 125.855469 150.917969 149.507812 C 144.457031 144.730469 136.5 141.796875 127.777344 141.796875 C 106.476562 141.796875 89.222656 158.664062 89.222656 179.46875 C 89.222656 184.519531 90.277344 189.332031 92.121094 193.738281 C 88.445312 192.742188 84.648438 192.027344 80.648438 192.027344 C 56.984375 192.027344 37.808594 210.761719 37.808594 233.886719 C 37.808594 257.011719 56.984375 275.746094 80.648438 275.746094 L 277.703125 275.746094 C 315.5625 275.746094 346.246094 245.765625 346.246094 208.773438 C 346.246094 171.777344 315.5625 141.796875 277.710938 141.796875 Z M 277.710938 141.796875 " fill-opacity="1" fill-rule="nonzero"/></g><g clip-path="url(#8cd758eff0)"><path fill="#5dadec" d="M 134.738281 328.277344 L 133.742188 298.128906 L 108.460938 313.183594 C 102.828125 316.222656 99.101562 322.207031 99.328125 329.035156 C 99.65625 338.746094 107.84375 346.449219 117.625 346.246094 C 127.398438 346.042969 135.0625 337.988281 134.738281 328.277344 Z M 73.234375 314.707031 L 72.230469 284.558594 L 46.949219 299.609375 C 41.316406 302.652344 37.582031 308.636719 37.816406 315.464844 C 38.144531 325.183594 46.332031 332.878906 56.113281 332.675781 C 65.894531 332.472656 73.5625 324.417969 73.234375 314.707031 Z M 196.609375 319.464844 L 195.613281 289.316406 L 170.332031 304.371094 C 164.699219 307.410156 160.972656 313.394531 161.203125 320.222656 C 161.527344 329.933594 169.714844 337.636719 179.496094 337.433594 C 189.269531 337.230469 196.9375 329.175781 196.609375 319.464844 Z M 249.292969 328.277344 L 248.296875 298.128906 L 223.011719 313.183594 C 217.382812 316.222656 213.652344 322.207031 213.890625 329.035156 C 214.21875 338.746094 222.394531 346.449219 232.1875 346.246094 C 241.960938 346.042969 249.617188 337.988281 249.292969 328.277344 Z M 302.351562 314.707031 L 301.347656 284.558594 L 276.0625 299.609375 C 270.433594 302.652344 266.707031 308.636719 266.941406 315.464844 C 267.269531 325.183594 275.445312 332.878906 285.238281 332.675781 C 295.019531 332.472656 302.679688 324.417969 302.351562 314.707031 Z M 302.351562 314.707031 " fill-opacity="1" fill-rule="nonzero"/></g></svg>