<svg xmlns="http://www.w3.org/2000/svg" width="500" height="500" version="1.0" viewBox="0 0 375 375"><defs><clipPath id="a"><path d="M83 38h282.648v164H83Zm0 0"/></clipPath><clipPath id="b"><path d="M15.398 62H298v164H15.398Zm0 0"/></clipPath></defs><g clip-path="url(#a)"><path fill="#86a3bf" d="M187.36 38.512c-2.055 0-4.102.101-6.15.304a62.66 62.66 0 0 0-17.86 4.473 63.458 63.458 0 0 0-5.565 2.629 61.711 61.711 0 0 0-5.281 3.168 63.667 63.667 0 0 0-4.945 3.664 63.546 63.546 0 0 0-4.563 4.133 61.751 61.751 0 0 0-4.133 4.562 61.947 61.947 0 0 0-3.668 4.942 62.321 62.321 0 0 0-3.168 5.281 63.42 63.42 0 0 0-2.632 5.562 63.56 63.56 0 0 0-2.075 5.797 64.085 64.085 0 0 0-1.496 5.97 64.098 64.098 0 0 0-.902 6.089c-.2 2.043-.3 4.094-.3 6.148.01 2.32.155 4.637.425 6.942-23.66 4.246-41.414 23.351-41.414 46.418 0 26.207 22.914 47.304 51.375 47.304h183.316c26.215 0 47.32-19.609 47.32-43.968 0-24.207-20.843-43.715-46.832-43.957a53.139 53.139 0 0 0-.835-4.832 53.498 53.498 0 0 0-1.266-4.735 54.96 54.96 0 0 0-3.79-9.035 53.864 53.864 0 0 0-2.487-4.223 55.199 55.199 0 0 0-2.86-3.984 54.565 54.565 0 0 0-3.21-3.707 54.767 54.767 0 0 0-3.528-3.406 54.488 54.488 0 0 0-7.906-5.785 54.634 54.634 0 0 0-8.817-4.274 54.083 54.083 0 0 0-9.441-2.62 53.945 53.945 0 0 0-9.758-.883c-7.812.011-15.281 1.632-22.394 4.863a62.85 62.85 0 0 0-4.497-7.114 62.92 62.92 0 0 0-11.637-12.113 63.778 63.778 0 0 0-6.925-4.781 62.676 62.676 0 0 0-7.508-3.809 62.72 62.72 0 0 0-24.594-5.023Zm0 0"/></g><g clip-path="url(#b)"><path fill="#c6e0f7" d="M119.152 62.117c-2.054 0-4.105.098-6.148.301a63.913 63.913 0 0 0-6.09.902 63.858 63.858 0 0 0-5.973 1.496 63.143 63.143 0 0 0-5.796 2.075A62.694 62.694 0 0 0 74.79 80.489a62.63 62.63 0 0 0-4.138 4.558 62.93 62.93 0 0 0-3.664 4.945 61.644 61.644 0 0 0-3.168 5.278 63.067 63.067 0 0 0-4.707 11.36 63.857 63.857 0 0 0-1.496 5.972 63.832 63.832 0 0 0-.902 6.085c-.2 2.043-.3 4.094-.3 6.149.01 2.32.155 4.637.425 6.941-23.66 4.25-41.414 23.352-41.414 46.422 0 26.203 22.914 47.301 51.375 47.301h183.316c26.215 0 47.32-19.61 47.32-43.969 0-24.207-20.843-43.715-46.832-43.957a53.374 53.374 0 0 0-.835-4.832 54.88 54.88 0 0 0-1.266-4.734 54.961 54.961 0 0 0-3.79-9.035 54.276 54.276 0 0 0-12.086-15.316 55.465 55.465 0 0 0-3.82-3.075 54.634 54.634 0 0 0-12.902-6.988 54.53 54.53 0 0 0-9.441-2.621 53.573 53.573 0 0 0-4.86-.66 53.949 53.949 0 0 0-4.898-.223c-7.816.012-15.281 1.633-22.394 4.863a62.68 62.68 0 0 0-9.91-13.558 62.693 62.693 0 0 0-20.656-14.258 62.72 62.72 0 0 0-16.196-4.457 62.883 62.883 0 0 0-8.399-.563Zm0 0"/></g><path fill="#3981bf" d="M88.871 195.742c-4.766 5.375-17.664 16.14-21.558 30.797a12.787 12.787 0 0 0-.329 5c.11.84.301 1.656.575 2.453a12.842 12.842 0 0 0 8.84 8.281 12.899 12.899 0 0 0 5.004.328 12.936 12.936 0 0 0 6.796-3.078 12.982 12.982 0 0 0 3.051-3.976c.371-.758.668-1.543.887-2.36l.082-.32c3.992-15.394-1.918-30.137-3.348-37.125ZM147.613 195.742c-4.765 5.375-17.664 16.14-21.558 30.797a12.787 12.787 0 0 0-.328 5c.109.84.3 1.656.574 2.453a12.842 12.842 0 0 0 13.844 8.61 12.936 12.936 0 0 0 4.746-1.614 12.842 12.842 0 0 0 6.07-8.12c3.988-15.395-1.918-30.138-3.348-37.126ZM206.45 197.313c-4.766 5.37-17.665 16.14-21.555 30.796a12.69 12.69 0 0 0-.41 2.485 12.927 12.927 0 0 0 .652 4.969c.273.796.617 1.562 1.039 2.292.422.73.91 1.415 1.469 2.047a12.815 12.815 0 0 0 3.976 3.051c.758.375 1.543.668 2.36.887a12.899 12.899 0 0 0 7.453-.242 12.93 12.93 0 0 0 2.296-1.04 12.994 12.994 0 0 0 3.77-3.305c.512-.671.957-1.382 1.328-2.14.375-.754.672-1.543.89-2.355.028-.106.055-.215.079-.32 3.992-15.395-1.918-30.141-3.348-37.125ZM118.29 249.219c-4.767 5.375-17.665 16.14-21.56 30.797a13.407 13.407 0 0 0-.41 2.484c-.054.844-.027 1.684.086 2.52a12.819 12.819 0 0 0 3.078 6.793 12.888 12.888 0 0 0 3.977 3.05c.758.371 1.543.668 2.36.887a12.899 12.899 0 0 0 5 .328c.835-.11 1.656-.3 2.452-.574.801-.27 1.567-.617 2.297-1.04.73-.421 1.41-.91 2.047-1.464a13.024 13.024 0 0 0 1.723-1.84c.512-.668.957-1.379 1.328-2.137a12.79 12.79 0 0 0 .969-2.68c3.992-15.39-1.918-30.136-3.348-37.124ZM177.031 249.219c-4.765 5.375-17.664 16.14-21.558 30.797a12.929 12.929 0 0 0-.328 5.004c.113.835.3 1.652.574 2.449a12.796 12.796 0 0 0 2.508 4.344 12.888 12.888 0 0 0 6.332 3.938 12.899 12.899 0 0 0 5.004.328c.835-.11 1.656-.302 2.453-.575.8-.27 1.566-.617 2.297-1.04.73-.421 1.41-.91 2.046-1.464a13.024 13.024 0 0 0 1.723-1.84c.512-.668.957-1.379 1.328-2.137a12.79 12.79 0 0 0 .969-2.68c3.992-15.39-1.918-30.136-3.348-37.124Zm0 0"/></svg>