<svg xmlns="http://www.w3.org/2000/svg" xmlns:xlink="http://www.w3.org/1999/xlink" width="500" zoomAndPan="magnify" viewBox="0 0 375 374.999991" height="500" preserveAspectRatio="xMidYMid meet" version="1.0"><defs><clipPath id="9a0ea8f16a"><path d="M 20.835938 26.875 L 258 26.875 L 258 178 L 20.835938 178 Z M 20.835938 26.875 " clip-rule="nonzero"/></clipPath><clipPath id="2c65f4fc41"><path d="M 20.835938 26.875 L 258 26.875 L 258 114 L 20.835938 114 Z M 20.835938 26.875 " clip-rule="nonzero"/></clipPath><clipPath id="2bb2eb5578"><path d="M 117 74 L 353.835938 74 L 353.835938 226 L 117 226 Z M 117 74 " clip-rule="nonzero"/></clipPath><clipPath id="a6596414ee"><path d="M 117 74 L 353.835938 74 L 353.835938 161 L 117 161 Z M 117 74 " clip-rule="nonzero"/></clipPath><clipPath id="d276641ded"><path d="M 182 297 L 205 297 L 205 347.875 L 182 347.875 Z M 182 297 " clip-rule="nonzero"/></clipPath></defs><g clip-path="url(#9a0ea8f16a)"><path fill="#939598" d="M 216.535156 64.554688 C 214.277344 64.554688 212.066406 64.742188 209.910156 65.089844 C 208.335938 43.792969 190.574219 26.996094 168.878906 26.996094 C 155.667969 26.996094 143.917969 33.230469 136.386719 42.90625 C 129.410156 37.46875 120.644531 34.21875 111.113281 34.21875 C 92.746094 34.21875 77.195312 46.253906 71.898438 62.867188 C 68.730469 62.085938 65.421875 61.664062 62.011719 61.664062 C 39.28125 61.664062 20.855469 80.09375 20.855469 102.832031 C 20.855469 123.292969 35.78125 140.257812 55.339844 143.449219 C 58.527344 163.007812 75.492188 177.941406 95.949219 177.941406 C 110.425781 177.941406 123.144531 170.460938 130.480469 159.160156 C 137.820312 170.460938 150.539062 177.941406 165.015625 177.941406 C 184.816406 177.941406 201.347656 163.953125 205.28125 145.316406 C 208.859375 146.332031 212.628906 146.886719 216.535156 146.886719 C 239.265625 146.886719 257.691406 128.453125 257.691406 105.71875 C 257.691406 82.984375 239.265625 64.554688 216.535156 64.554688 Z M 216.535156 64.554688 " fill-opacity="1" fill-rule="nonzero"/></g><g clip-path="url(#2c65f4fc41)"><path fill="#000000" d="M 257.691406 105.71875 C 257.691406 108.402344 257.433594 111.023438 256.941406 113.5625 C 253.277344 94.582031 236.582031 80.242188 216.535156 80.242188 C 214.277344 80.242188 212.066406 80.429688 209.910156 80.777344 C 208.335938 59.476562 190.570312 42.683594 168.875 42.683594 C 155.667969 42.683594 143.917969 48.917969 136.390625 58.59375 C 129.410156 53.160156 120.640625 49.910156 111.109375 49.910156 C 92.746094 49.910156 77.199219 61.945312 71.902344 78.558594 C 68.726562 77.773438 65.421875 77.355469 62.011719 77.355469 C 41.957031 77.355469 25.261719 91.695312 21.605469 110.675781 C 21.113281 108.136719 20.855469 105.511719 20.855469 102.832031 C 20.855469 80.101562 39.277344 61.667969 62.011719 61.667969 C 65.417969 61.667969 68.726562 62.089844 71.898438 62.871094 C 77.195312 46.257812 92.746094 34.222656 111.109375 34.222656 C 120.640625 34.222656 129.410156 37.472656 136.390625 42.90625 C 143.917969 33.230469 155.667969 26.996094 168.875 26.996094 C 190.570312 26.996094 208.335938 43.789062 209.910156 65.089844 C 212.0625 64.742188 214.273438 64.554688 216.535156 64.554688 C 239.261719 64.554688 257.691406 82.988281 257.691406 105.71875 Z M 257.691406 105.71875 " fill-opacity="0.1" fill-rule="nonzero"/></g><g clip-path="url(#2bb2eb5578)"><path fill="#d1d3d4" d="M 312.726562 111.679688 C 310.472656 111.679688 308.261719 111.867188 306.105469 112.21875 C 304.53125 90.917969 286.765625 74.125 265.070312 74.125 C 251.859375 74.125 240.113281 80.355469 232.582031 90.035156 C 225.605469 84.59375 216.835938 81.34375 207.304688 81.34375 C 188.941406 81.34375 173.390625 93.378906 168.09375 109.992188 C 164.925781 109.210938 161.613281 108.789062 158.207031 108.789062 C 135.476562 108.789062 117.046875 127.21875 117.046875 149.957031 C 117.046875 170.417969 131.976562 187.382812 151.53125 190.574219 C 154.722656 210.136719 171.6875 225.066406 192.140625 225.066406 C 206.617188 225.066406 219.339844 217.585938 226.675781 206.285156 C 234.015625 217.585938 246.734375 225.066406 261.210938 225.066406 C 281.011719 225.066406 297.542969 211.078125 301.472656 192.441406 C 305.050781 193.457031 308.824219 194.011719 312.726562 194.011719 C 335.460938 194.011719 353.886719 175.582031 353.886719 152.84375 C 353.886719 130.109375 335.460938 111.679688 312.726562 111.679688 Z M 312.726562 111.679688 " fill-opacity="1" fill-rule="nonzero"/></g><g clip-path="url(#a6596414ee)"><path fill="#000000" d="M 353.882812 152.84375 C 353.882812 155.527344 353.628906 158.148438 353.136719 160.6875 C 349.472656 141.707031 332.773438 127.367188 312.730469 127.367188 C 310.46875 127.367188 308.257812 127.554688 306.105469 127.902344 C 304.53125 106.601562 286.765625 89.808594 265.070312 89.808594 C 251.859375 89.808594 240.109375 96.042969 232.582031 105.71875 C 225.605469 100.285156 216.835938 97.035156 207.304688 97.035156 C 188.9375 97.035156 173.390625 109.070312 168.09375 125.683594 C 164.921875 124.902344 161.613281 124.480469 158.207031 124.480469 C 138.152344 124.480469 121.453125 138.820312 117.796875 157.800781 C 117.304688 155.261719 117.046875 152.640625 117.046875 149.957031 C 117.046875 127.226562 135.46875 108.792969 158.203125 108.792969 C 161.613281 108.792969 164.921875 109.214844 168.09375 109.996094 C 173.390625 93.382812 188.9375 81.347656 207.300781 81.347656 C 216.835938 81.347656 225.601562 84.597656 232.582031 90.03125 C 240.109375 80.355469 251.859375 74.125 265.070312 74.125 C 286.765625 74.125 304.53125 90.914062 306.105469 112.214844 C 308.257812 111.867188 310.46875 111.679688 312.726562 111.679688 C 335.457031 111.679688 353.882812 130.113281 353.882812 152.84375 Z M 353.882812 152.84375 " fill-opacity="0.1" fill-rule="nonzero"/></g><path fill="#fcaf17" d="M 217.328125 240.433594 C 218.554688 238.90625 218.039062 237.144531 216.183594 236.523438 L 180.714844 224.628906 C 178.855469 224.003906 177.847656 221.976562 178.46875 220.117188 L 200.972656 152.976562 C 201.597656 151.117188 201.101562 150.847656 199.875 152.375 L 123.746094 247.128906 C 122.515625 248.660156 123.03125 250.417969 124.890625 251.042969 L 160.355469 262.9375 C 162.214844 263.558594 163.226562 265.589844 162.601562 267.449219 L 140.097656 334.589844 C 139.476562 336.449219 139.972656 336.71875 141.199219 335.191406 Z M 217.328125 240.433594 " fill-opacity="1" fill-rule="nonzero"/><path fill="#f8a81a" d="M 217.328125 240.433594 L 141.195312 335.191406 C 139.96875 336.71875 139.476562 336.449219 140.097656 334.585938 L 144.910156 320.242188 L 205.207031 245.191406 C 206.4375 243.65625 205.921875 241.902344 204.0625 241.277344 L 168.59375 229.382812 C 166.734375 228.761719 165.726562 226.726562 166.347656 224.867188 L 184.050781 172.074219 L 199.867188 152.378906 C 201.101562 150.84375 201.59375 151.113281 200.976562 152.976562 L 178.46875 220.117188 C 177.847656 221.972656 178.851562 224.003906 180.714844 224.632812 L 216.179688 236.519531 C 218.042969 237.148438 218.554688 238.90625 217.328125 240.433594 Z M 217.328125 240.433594 " fill-opacity="1" fill-rule="nonzero"/><path fill="#60c8f3" d="M 32.359375 222.769531 C 31.839844 222.769531 31.308594 222.695312 30.785156 222.535156 C 27.964844 221.667969 26.378906 218.675781 27.246094 215.851562 L 39.363281 176.375 C 40.230469 173.550781 43.222656 171.960938 46.046875 172.832031 C 48.867188 173.699219 50.453125 176.6875 49.585938 179.511719 L 37.46875 218.988281 C 36.761719 221.292969 34.644531 222.769531 32.359375 222.769531 Z M 32.359375 222.769531 " fill-opacity="1" fill-rule="nonzero"/><path fill="#60c8f3" d="M 243.488281 288.609375 C 242.96875 288.609375 242.4375 288.535156 241.917969 288.375 C 239.09375 287.507812 237.507812 284.515625 238.375 281.691406 L 250.492188 242.214844 C 251.359375 239.390625 254.351562 237.804688 257.175781 238.671875 C 259.996094 239.539062 261.582031 242.53125 260.714844 245.351562 L 248.597656 284.832031 C 247.890625 287.132812 245.773438 288.609375 243.488281 288.609375 Z M 243.488281 288.609375 " fill-opacity="1" fill-rule="nonzero"/><path fill="#60c8f3" d="M 316.757812 263.824219 C 316.238281 263.824219 315.710938 263.746094 315.1875 263.585938 C 312.363281 262.71875 310.777344 259.726562 311.644531 256.90625 L 323.765625 217.425781 C 324.632812 214.601562 327.625 213.019531 330.445312 213.882812 C 333.269531 214.75 334.855469 217.742188 333.988281 220.566406 L 321.867188 260.042969 C 321.160156 262.34375 319.046875 263.824219 316.757812 263.824219 Z M 316.757812 263.824219 " fill-opacity="1" fill-rule="nonzero"/><path fill="#60c8f3" d="M 278.261719 328.085938 C 277.742188 328.085938 277.214844 328.011719 276.691406 327.851562 C 273.867188 326.984375 272.28125 323.992188 273.148438 321.167969 L 285.269531 281.691406 C 286.136719 278.867188 289.128906 277.285156 291.949219 278.148438 C 294.773438 279.015625 296.359375 282.007812 295.492188 284.832031 L 283.371094 324.308594 C 282.664062 326.609375 280.546875 328.085938 278.261719 328.085938 Z M 278.261719 328.085938 " fill-opacity="1" fill-rule="nonzero"/><g clip-path="url(#d276641ded)"><path fill="#60c8f3" d="M 187.371094 347.828125 C 186.851562 347.828125 186.324219 347.75 185.800781 347.589844 C 182.976562 346.722656 181.390625 343.730469 182.257812 340.90625 L 194.378906 301.429688 C 195.246094 298.605469 198.238281 297.023438 201.058594 297.886719 C 203.882812 298.753906 205.46875 301.746094 204.601562 304.570312 L 192.480469 344.046875 C 191.773438 346.347656 189.660156 347.828125 187.371094 347.828125 Z M 187.371094 347.828125 " fill-opacity="1" fill-rule="nonzero"/></g><path fill="#60c8f3" d="M 109.394531 328.085938 C 108.875 328.085938 108.347656 328.011719 107.824219 327.851562 C 105 326.984375 103.414062 323.992188 104.28125 321.167969 L 116.402344 281.691406 C 117.265625 278.867188 120.257812 277.285156 123.082031 278.148438 C 125.902344 279.015625 127.488281 282.007812 126.625 284.832031 L 114.503906 324.308594 C 113.796875 326.609375 111.679688 328.085938 109.394531 328.085938 Z M 109.394531 328.085938 " fill-opacity="1" fill-rule="nonzero"/><path fill="#60c8f3" d="M 44.476562 298.394531 C 43.957031 298.394531 43.429688 298.316406 42.90625 298.15625 C 40.082031 297.289062 38.496094 294.296875 39.363281 291.472656 L 51.484375 251.996094 C 52.351562 249.171875 55.339844 247.589844 58.164062 248.453125 C 60.988281 249.320312 62.574219 252.3125 61.707031 255.136719 L 49.585938 294.613281 C 48.882812 296.914062 46.765625 298.394531 44.476562 298.394531 Z M 44.476562 298.394531 " fill-opacity="1" fill-rule="nonzero"/><path fill="#60c8f3" d="M 91.824219 250.15625 C 91.304688 250.15625 90.777344 250.078125 90.253906 249.917969 C 87.433594 249.050781 85.84375 246.058594 86.710938 243.238281 L 98.832031 203.757812 C 99.699219 200.9375 102.6875 199.351562 105.511719 200.214844 C 108.335938 201.082031 109.921875 204.074219 109.054688 206.898438 L 96.933594 246.375 C 96.230469 248.675781 94.113281 250.15625 91.824219 250.15625 Z M 91.824219 250.15625 " fill-opacity="1" fill-rule="nonzero"/></svg>