<svg xmlns="http://www.w3.org/2000/svg" width="500" viewBox="0 0 375 375" height="500" version="1.0"><defs><clipPath id="a"><path d="M191 34.715h53V85h-53Zm0 0"/></clipPath></defs><path fill="#fab918" d="M334.316 251.172a9.9 9.9 0 0 0-10.757-3.207c-22.45 7.289-46.516 8.312-69.622 2.965-70.144-16.223-114.011-86.473-97.785-156.598 3-12.98 7.91-25.336 14.598-36.71a9.852 9.852 0 0 0-.816-11.196 9.867 9.867 0 0 0-10.754-3.207c-24.239 7.863-46.239 21.863-63.633 40.468-17.938 19.188-30.567 42.93-36.524 68.657-18.683 80.734 31.82 161.629 112.579 180.304 31.82 7.352 64.406 4.329 94.234-8.773 28.832-12.648 53.43-34.496 69.293-61.512a9.892 9.892 0 0 0-.813-11.191"/><path fill="#fab918" d="M296.926 130.617a8.7 8.7 0 0 0-7.766-6.273l-22.887-1.543L258.082 102a8.683 8.683 0 0 0-8.086-5.508 8.698 8.698 0 0 0-8.094 5.508l-8.191 20.8-22.887 1.544a8.713 8.713 0 0 0-7.765 6.273 8.692 8.692 0 0 0 3.242 9.442l18.234 13.242-6.687 22.75a8.716 8.716 0 0 0 3.332 9.562 8.714 8.714 0 0 0 10.125-.07l18.691-13.574 18.684 13.574a8.718 8.718 0 0 0 5.117 1.664c1.75 0 3.5-.535 5.008-1.594a8.716 8.716 0 0 0 3.332-9.562l-6.688-22.75 18.235-13.242a8.692 8.692 0 0 0 3.242-9.442"/><g clip-path="url(#a)"><path fill="#fab918" d="M243.277 53.453A4.802 4.802 0 0 0 239.012 50l-12.582-.836-4.496-11.426a4.774 4.774 0 0 0-4.438-3.031 4.79 4.79 0 0 0-4.45 3.031l-4.495 11.426-12.567.836a4.807 4.807 0 0 0-4.27 3.453 4.756 4.756 0 0 0 1.79 5.176l10.016 7.277-3.684 12.492a4.796 4.796 0 0 0 1.836 5.25 4.8 4.8 0 0 0 5.566-.035l10.258-7.46 10.27 7.46c.828.606 1.812.91 2.808.91a4.772 4.772 0 0 0 4.57-6.125l-3.671-12.492 10.015-7.277a4.756 4.756 0 0 0 1.79-5.176"/></g><path fill="#fab918" d="M336.367 99.484a2.96 2.96 0 0 0-2.648-2.152l-7.828-.523-2.793-7.11a2.968 2.968 0 0 0-2.762-1.883c-1.227 0-2.32.743-2.77 1.883l-2.796 7.11-7.817.523c-1.25.086-2.32.95-2.66 2.152a2.961 2.961 0 0 0 1.105 3.22l6.235 4.519-2.285 7.789a2.945 2.945 0 0 0 1.144 3.258c1.031.742 2.43.73 3.453-.024l6.39-4.644 6.384 4.644c.523.375 1.129.57 1.75.57a2.98 2.98 0 0 0 2.855-3.804l-2.297-7.79 6.235-4.519a2.957 2.957 0 0 0 1.11-3.219"/></svg>