<svg xmlns="http://www.w3.org/2000/svg" width="500" viewBox="0 0 375 375" height="500" version="1.0"><path fill="#fbbe4b" d="M258.855 184.992c0 40.395-28 72.496-68.39 72.496-40.395 0-74.32-29.593-74.32-69.988 0-40.395 30.644-69.988 71.039-69.988 43.625 0 71.671 27.086 71.671 67.48ZM193.543 41.25c-2.211-3.418-11.445-3.762-13.953.117-2.582 3.988-.25 58.934 6.976 58.934 7.903-.004 8.883-56.102 6.977-59.051Zm-73.934 16.574c-3.625-1.855-11.793 2.465-12.027 7.074-.242 4.747 29.25 51.165 35.512 47.551 6.844-3.953-20.36-53.023-23.485-54.625Zm-55.742 51.32c-4.066.204-8.98 8.032-6.879 12.137 2.164 4.23 50.914 29.688 54.528 23.426 3.949-6.844-44.141-35.738-47.649-35.562ZM41.25 181.458c-3.418 2.211-3.762 11.445.117 13.953 3.988 2.582 58.934.25 58.934-6.98-.004-7.899-56.102-8.88-59.051-6.973Zm16.574 73.934c-1.855 3.625 2.465 11.793 7.074 12.027 4.747.242 51.165-29.25 47.551-35.512-3.953-6.844-53.023 20.36-54.625 23.485Zm51.32 55.742c.204 4.066 8.032 8.98 12.137 6.879 4.23-2.164 29.688-50.914 23.426-54.528-6.844-3.949-35.738 44.141-35.562 47.649Zm72.313 22.617c2.211 3.418 11.445 3.762 13.953-.117 2.582-3.988.25-58.934-6.976-58.934-7.903.004-8.883 56.102-6.977 59.051Zm73.934-16.574c3.625 1.855 11.793-2.465 12.027-7.074.242-4.747-29.25-51.164-35.512-47.551-6.844 3.953 20.36 53.023 23.485 54.625Zm55.742-51.32c4.066-.204 8.98-8.032 6.879-12.137-2.164-4.23-50.914-29.688-54.528-23.426-3.949 6.844 44.141 35.738 47.649 35.562Zm22.617-72.313c3.418-2.211 3.762-11.445-.117-13.953-3.988-2.582-58.934-.25-58.934 6.976.004 7.903 56.102 8.883 59.051 6.977Zm-16.574-73.934c1.855-3.625-2.465-11.793-7.074-12.027-4.747-.242-51.164 29.25-47.551 35.512 3.953 6.844 53.023-20.36 54.625-23.485Zm-51.32-55.742c-.204-4.066-8.032-8.98-12.137-6.879-4.23 2.164-29.688 50.914-23.426 54.528 6.844 3.949 35.738-44.141 35.562-47.649Zm0 0"/></svg>