<svg xmlns="http://www.w3.org/2000/svg" width="500" viewBox="0 0 375 375" height="500" version="1.0"><defs><clipPath id="a"><path d="M183 76.371h184.566V262H183Zm0 0"/></clipPath><clipPath id="b"><path d="M7.566 152H321v179.371H7.566Zm0 0"/></clipPath></defs><g clip-path="url(#a)"><path fill="#fbbe4b" d="M367.426 198.293c-12.707 36.55-47.942 62.86-89.453 62.86-52.2 0-94.508-41.606-94.508-92.91.031-46.505 34.758-85.005 80.074-91.852-14.016 14.367-22.66 33.89-22.66 55.367 0 44.164 36.422 79.976 81.355 79.976 16.739 0 32.262-4.957 45.192-13.441Zm0 0" fill-rule="evenodd"/></g><g clip-path="url(#b)"><path fill="#e9ecef" d="M269.75 221.082c-7.586-21.762-28.55-37.445-53.258-37.445-5.566 0-10.945.8-16 2.273-14.531-20.164-38.437-33.351-65.484-33.351-29.57 0-55.336 15.78-69.258 39.175-15.617 4.032-27.012 16.672-27.012 31.653 0 1.054.067 2.078.192 3.07-18.594 9.09-31.364 27.879-31.364 49.61 0 30.562 25.188 55.335 56.266 55.335H263.73c31.079 0 56.297-24.773 56.297-55.336 0-28.55-22.02-52.039-50.277-54.984Zm0 0" fill-rule="evenodd"/></g></svg>