<svg xmlns="http://www.w3.org/2000/svg" width="500" viewBox="0 0 375 375" height="500" version="1.0"><defs><clipPath id="a"><path d="M28.996 28.996H267V179H28.996Zm0 0"/></clipPath><clipPath id="b"><path d="M37 108h309.246v168H37Zm0 0"/></clipPath><clipPath id="c"><path d="M37 284h266v62.246H37Zm0 0"/></clipPath></defs><g clip-path="url(#a)"><path fill="#ffac33" d="M143.559 46.621s0-17.625 17.625-17.625 17.625 17.625 17.625 17.625v17.625s0 17.625-17.625 17.625-17.625-17.625-17.625-17.625ZM64.246 143.56s17.625 0 17.625 17.625-17.625 17.625-17.625 17.625H46.621s-17.625 0-17.625-17.625 17.625-17.625 17.625-17.625ZM98.367 82.25s12.461 12.46 0 24.922c-12.46 12.46-24.922 0-24.922 0L60.977 94.719s-12.461-12.461 0-24.93c12.468-12.46 24.93 0 24.93 0Zm150.563 24.922s-12.461 12.46-24.922 0c-12.461-12.461 0-24.922 0-24.922l12.46-12.46s12.462-12.462 24.923 0c12.46 12.46 0 24.92 0 24.92Zm0 0"/></g><path fill="#ffac33" d="M231.684 161.184c0 1.156-.028 2.308-.086 3.46a67.91 67.91 0 0 1-.254 3.45 72.235 72.235 0 0 1-.422 3.433 71.474 71.474 0 0 1-2.274 10.121 68.75 68.75 0 0 1-1.085 3.286 68.85 68.85 0 0 1-1.247 3.23 71.356 71.356 0 0 1-2.957 6.254 71.685 71.685 0 0 1-3.554 5.934 72.138 72.138 0 0 1-1.996 2.828 64.814 64.814 0 0 1-2.13 2.73c-.73.89-1.484 1.766-2.257 2.617a68.828 68.828 0 0 1-2.387 2.508 68.828 68.828 0 0 1-2.508 2.387 68.615 68.615 0 0 1-2.617 2.258c-.894.734-1.8 1.445-2.73 2.129a72.138 72.138 0 0 1-2.828 1.996 71.685 71.685 0 0 1-5.934 3.555 71.356 71.356 0 0 1-6.254 2.956 68.85 68.85 0 0 1-3.23 1.246c-1.086.391-2.18.75-3.286 1.086a64.746 64.746 0 0 1-3.335.922 71.474 71.474 0 0 1-6.785 1.352c-1.141.168-2.286.308-3.434.422a67.91 67.91 0 0 1-3.45.254 68.103 68.103 0 0 1-3.46.086c-1.153 0-2.305-.028-3.457-.086a68.063 68.063 0 0 1-3.454-.254 72.235 72.235 0 0 1-3.433-.422 72.34 72.34 0 0 1-6.785-1.352 65.856 65.856 0 0 1-3.336-.922 68.749 68.749 0 0 1-3.285-1.085 67.08 67.08 0 0 1-3.227-1.247 71.499 71.499 0 0 1-6.258-2.957 69.157 69.157 0 0 1-3.008-1.707 66.956 66.956 0 0 1-5.754-3.843 64.7 64.7 0 0 1-2.726-2.13 68.828 68.828 0 0 1-5.129-4.645 72.354 72.354 0 0 1-2.387-2.507 68.615 68.615 0 0 1-2.257-2.617 72.005 72.005 0 0 1-4.122-5.558 70.828 70.828 0 0 1-3.558-5.934 71.357 71.357 0 0 1-2.957-6.254 73.459 73.459 0 0 1-1.246-3.23 73.44 73.44 0 0 1-1.086-3.286 70.25 70.25 0 0 1-2.695-13.555 67.91 67.91 0 0 1-.254-3.448 68.104 68.104 0 0 1-.086-3.461c0-1.153.027-2.305.086-3.457.054-1.153.14-2.305.253-3.454.114-1.148.254-2.293.426-3.433a70.25 70.25 0 0 1 3.355-13.406 71.456 71.456 0 0 1 4.204-9.485 73.486 73.486 0 0 1 1.707-3.008 70.964 70.964 0 0 1 3.844-5.754 71.875 71.875 0 0 1 4.386-5.347 72.354 72.354 0 0 1 2.387-2.508 72.354 72.354 0 0 1 2.508-2.387 71.875 71.875 0 0 1 5.348-4.387 70.84 70.84 0 0 1 8.761-5.55 71.5 71.5 0 0 1 9.485-4.203c1.086-.387 2.18-.75 3.285-1.086a70.25 70.25 0 0 1 13.555-2.695c1.148-.114 2.3-.2 3.453-.254a68.063 68.063 0 0 1 3.457-.086c1.156 0 2.308.027 3.46.086 1.153.054 2.301.14 3.45.253 1.148.114 2.293.254 3.433.426a70.25 70.25 0 0 1 13.406 3.355 71.407 71.407 0 0 1 9.484 4.203 70.828 70.828 0 0 1 16.617 12.324 68.828 68.828 0 0 1 4.646 5.13 64.7 64.7 0 0 1 2.129 2.727 66.956 66.956 0 0 1 3.844 5.754 69.157 69.157 0 0 1 4.663 9.265 67.08 67.08 0 0 1 1.246 3.227c.391 1.086.75 2.18 1.086 3.285.336 1.105.645 2.215.922 3.336a72.34 72.34 0 0 1 1.352 6.785c.168 1.14.308 2.285.422 3.433.113 1.149.199 2.301.254 3.454.058 1.152.086 2.304.086 3.457Zm0 0"/><g clip-path="url(#b)"><path fill="#e1e8ed" d="M277.71 141.797a69.779 69.779 0 0 0-20.304 2.996c-7.594-21.23-28.207-36.484-52.531-36.484-26.074 0-47.91 17.546-53.957 41.199-6.461-4.778-14.418-7.711-23.14-7.711-21.301 0-38.555 16.867-38.555 37.672 0 5.05 1.054 9.863 2.898 14.27-3.676-.997-7.473-1.712-11.473-1.712-23.664 0-42.84 18.735-42.84 41.86s19.176 41.86 42.84 41.86h197.055c37.86 0 68.543-29.981 68.543-66.974 0-36.996-30.683-66.976-68.535-66.976Zm0 0"/></g><g clip-path="url(#c)"><path fill="#5dadec" d="m134.738 328.277-.996-30.148-25.281 15.055c-5.633 3.039-9.36 9.023-9.133 15.851.328 9.711 8.516 17.414 18.297 17.211 9.773-.203 17.438-8.258 17.113-17.969Zm-61.504-13.57-1.004-30.148-25.28 15.05c-5.634 3.043-9.368 9.028-9.134 15.856.329 9.719 8.516 17.414 18.297 17.21 9.782-.202 17.45-8.257 17.121-17.968Zm123.375 4.758-.996-30.149-25.281 15.055c-5.633 3.04-9.36 9.024-9.129 15.852.324 9.71 8.512 17.414 18.293 17.21 9.774-.203 17.441-8.257 17.113-17.968Zm52.684 8.812-.996-30.148-25.285 15.055c-5.63 3.039-9.36 9.023-9.121 15.851.328 9.711 8.504 17.414 18.297 17.211 9.773-.203 17.43-8.258 17.105-17.969Zm53.059-13.57-1.004-30.148-25.286 15.05c-5.628 3.043-9.355 9.028-9.12 15.856.328 9.719 8.503 17.414 18.296 17.21 9.782-.202 17.442-8.257 17.114-17.968Zm0 0"/></g></svg>