<svg xmlns="http://www.w3.org/2000/svg" width="500" viewBox="0 0 375 375" height="500" version="1.0"><defs><clipPath id="a"><path d="M37.5 34.406h306V205h-306Zm0 0"/></clipPath><clipPath id="b"><path d="M40 212h292v128.406H40Zm0 0"/></clipPath></defs><g clip-path="url(#a)"><path fill="#e1e8ed" d="M275.5 68.406a67.913 67.913 0 0 0-20.137 3.035c-7.539-21.546-27.992-37.035-52.113-37.035-25.875 0-47.531 17.817-53.543 41.828-6.406-4.843-14.297-7.828-22.957-7.828-21.121 0-38.25 17.13-38.25 38.25 0 5.133 1.047 10.012 2.883 14.485-3.649-1.012-7.414-1.735-11.383-1.735-23.477 0-42.5 19.024-42.5 42.5 0 23.477 19.023 42.5 42.5 42.5h195.5c37.555 0 68-30.437 68-68 0-37.554-30.445-68-68-68Zm0 0"/></g><g clip-path="url(#b)"><path fill="#5dadec" d="M93.004 261.781c-1.172-2.031-3.766-2.719-5.805-1.554l-15.699 9.07v-18.14a4.25 4.25 0 1 0-8.5 0v18.148l-15.715-9.07a4.25 4.25 0 0 0-5.808 1.554 4.25 4.25 0 0 0 1.558 5.816l15.707 9.051-15.707 9.07a4.258 4.258 0 0 0-1.558 5.805 4.257 4.257 0 0 0 5.808 1.563L63 284.016v18.14a4.25 4.25 0 1 0 8.5 0v-18.129l15.707 9.067a4.237 4.237 0 0 0 5.805-1.563 4.241 4.241 0 0 0-1.555-5.804l-15.707-9.07 15.707-9.071a4.237 4.237 0 0 0 1.547-5.805Zm85 34c-1.172-2.031-3.766-2.719-5.805-1.554l-15.699 9.07v-18.14a4.25 4.25 0 1 0-8.5 0v18.148l-15.715-9.07a4.25 4.25 0 0 0-5.808 1.554 4.25 4.25 0 0 0 1.558 5.816l15.707 9.067-15.707 9.07a4.254 4.254 0 0 0 4.25 7.371L148 318.016v18.14a4.25 4.25 0 1 0 8.5 0v-18.129l15.707 9.067a4.237 4.237 0 0 0 5.805-1.563 4.241 4.241 0 0 0-1.555-5.804l-15.707-9.07 15.707-9.071a4.237 4.237 0 0 0 1.547-5.805ZM131 268.156a4.25 4.25 0 1 0 8.5 0v-18.129l15.707 9.067a4.237 4.237 0 0 0 5.805-1.563 4.241 4.241 0 0 0-1.555-5.804l-15.707-9.07 15.707-9.071a4.253 4.253 0 0 0-4.25-7.367l-15.707 9.078v-18.14a4.25 4.25 0 1 0-8.5 0v18.148l-15.715-9.07a4.25 4.25 0 0 0-5.808 1.554 4.25 4.25 0 0 0 1.558 5.816l15.707 9.067-15.707 9.07a4.254 4.254 0 0 0 4.25 7.371L131 250.016Zm109.207-.562a4.237 4.237 0 0 0 5.805-1.563 4.241 4.241 0 0 0-1.555-5.804l-15.707-9.07 15.707-9.071a4.253 4.253 0 0 0-4.25-7.367l-15.707 9.078v-18.14a4.25 4.25 0 1 0-8.5 0v18.148l-15.715-9.07a4.25 4.25 0 0 0-5.808 1.554 4.25 4.25 0 0 0 1.558 5.816l15.707 9.067-15.707 9.07a4.254 4.254 0 0 0 4.25 7.371L216 258.516v18.14a4.25 4.25 0 1 0 8.5 0v-18.129Zm89.25-15.867-15.707-9.07 15.707-9.071a4.253 4.253 0 0 0-4.25-7.367l-15.707 9.078v-18.14a4.25 4.25 0 1 0-8.5 0v18.148l-15.715-9.07a4.25 4.25 0 0 0-5.808 1.554 4.25 4.25 0 0 0 1.558 5.816l15.707 9.067-15.707 9.07a4.254 4.254 0 0 0 4.25 7.371L301 250.016v18.14a4.25 4.25 0 1 0 8.5 0v-18.129l15.707 9.067a4.237 4.237 0 0 0 5.805-1.563 4.255 4.255 0 0 0-1.555-5.804Zm-40.953 44.054c-1.172-2.031-3.766-2.719-5.805-1.554L267 303.297v-18.14a4.25 4.25 0 1 0-8.5 0v18.148l-15.715-9.07a4.25 4.25 0 0 0-5.808 1.554 4.25 4.25 0 0 0 1.558 5.816l15.707 9.067-15.707 9.07a4.254 4.254 0 0 0 4.25 7.371l15.715-9.097v18.14a4.25 4.25 0 1 0 8.5 0v-18.129l15.707 9.067a4.237 4.237 0 0 0 5.805-1.563 4.241 4.241 0 0 0-1.555-5.804l-15.707-9.07 15.707-9.071a4.237 4.237 0 0 0 1.547-5.805Zm0 0"/></g></svg>