<svg xmlns="http://www.w3.org/2000/svg" width="500" viewBox="0 0 375 375" height="500" version="1.0"><defs><clipPath id="a"><path d="M20.836 26.875H258V178H20.836Zm0 0"/></clipPath><clipPath id="b"><path d="M20.836 26.875H258V114H20.836Zm0 0"/></clipPath><clipPath id="c"><path d="M117 74h236.836v152H117Zm0 0"/></clipPath><clipPath id="d"><path d="M117 74h236.836v87H117Zm0 0"/></clipPath><clipPath id="e"><path d="M182 297h23v50.875h-23Zm0 0"/></clipPath></defs><g clip-path="url(#a)"><path fill="#939598" d="M216.535 64.555c-2.258 0-4.469.187-6.625.535-1.574-21.297-19.336-38.094-41.031-38.094-13.211 0-24.961 6.234-32.492 15.91-6.977-5.437-15.742-8.687-25.274-8.687-18.367 0-33.918 12.035-39.215 28.648a41.231 41.231 0 0 0-9.886-1.203c-22.73 0-41.157 18.43-41.157 41.168 0 20.461 14.926 37.426 34.485 40.617 3.187 19.559 20.152 34.492 40.61 34.492 14.476 0 27.195-7.48 34.53-18.78 7.34 11.3 20.06 18.78 34.536 18.78 19.8 0 36.332-13.988 40.265-32.625a41.133 41.133 0 0 0 11.254 1.57c22.73 0 41.156-18.433 41.156-41.167 0-22.735-18.425-41.164-41.156-41.164Zm0 0"/></g><g clip-path="url(#b)"><path d="M257.691 105.719c0 2.683-.257 5.304-.75 7.844-3.664-18.981-20.359-33.32-40.406-33.32-2.258 0-4.469.187-6.625.534-1.574-21.3-19.34-38.093-41.035-38.093-13.207 0-24.957 6.234-32.484 15.91-6.98-5.434-15.75-8.684-25.282-8.684-18.363 0-33.91 12.035-39.207 28.649a41.115 41.115 0 0 0-9.89-1.204c-20.055 0-36.75 14.34-40.407 33.32a41.208 41.208 0 0 1-.75-7.843c0-22.73 18.422-41.164 41.157-41.164 3.406 0 6.715.422 9.886 1.203 5.297-16.613 20.848-28.648 39.211-28.648 9.532 0 18.301 3.25 25.282 8.683 7.527-9.676 19.277-15.91 32.484-15.91 21.695 0 39.46 16.793 41.035 38.094a41.505 41.505 0 0 1 6.625-.535c22.727 0 41.156 18.433 41.156 41.164Zm0 0" fill-opacity=".1"/></g><g clip-path="url(#c)"><path fill="#d1d3d4" d="M312.727 111.68c-2.254 0-4.465.187-6.622.539-1.574-21.301-19.34-38.094-41.035-38.094-13.21 0-24.957 6.23-32.488 15.91a40.959 40.959 0 0 0-25.277-8.691c-18.364 0-33.914 12.035-39.211 28.648a41.256 41.256 0 0 0-9.887-1.203c-22.73 0-41.16 18.43-41.16 41.168 0 20.461 14.93 37.426 34.484 40.617 3.192 19.563 20.156 34.492 40.61 34.492 14.476 0 27.199-7.48 34.535-18.78 7.34 11.3 20.058 18.78 34.535 18.78 19.8 0 36.332-13.988 40.262-32.625a41.154 41.154 0 0 0 11.254 1.57c22.734 0 41.16-18.429 41.16-41.167 0-22.735-18.426-41.164-41.16-41.164Zm0 0"/></g><g clip-path="url(#d)"><path d="M353.883 152.844c0 2.683-.254 5.304-.746 7.844-3.664-18.981-20.364-33.32-40.407-33.32-2.261 0-4.472.187-6.625.534-1.574-21.3-19.34-38.093-41.035-38.093-13.21 0-24.96 6.234-32.488 15.91a41 41 0 0 0-25.277-8.684c-18.368 0-33.914 12.035-39.211 28.649a41.28 41.28 0 0 0-9.887-1.204c-20.055 0-36.754 14.34-40.41 33.32-.492-2.538-.75-5.16-.75-7.843 0-22.73 18.422-41.164 41.156-41.164 3.41 0 6.719.422 9.89 1.203 5.298-16.613 20.845-28.648 39.208-28.648 9.535 0 18.3 3.25 25.281 8.683 7.527-9.676 19.277-15.906 32.488-15.906 21.696 0 39.461 16.79 41.035 38.09a41.493 41.493 0 0 1 6.622-.535c22.73 0 41.156 18.433 41.156 41.164Zm0 0" fill-opacity=".1"/></g><path fill="#fcaf17" d="M217.328 240.434c1.227-1.528.711-3.29-1.144-3.91l-35.47-11.895a3.575 3.575 0 0 1-2.245-4.512l22.504-67.14c.625-1.86.129-2.13-1.098-.602l-76.129 94.754c-1.23 1.531-.715 3.289 1.145 3.914l35.464 11.894a3.57 3.57 0 0 1 2.247 4.512l-22.504 67.14c-.621 1.86-.125 2.13 1.101.602Zm0 0"/><path fill="#f8a81a" d="m217.328 240.434-76.133 94.757c-1.226 1.528-1.718 1.258-1.097-.605l4.812-14.344 60.297-75.05c1.23-1.536.715-3.29-1.144-3.915l-35.47-11.894c-1.859-.621-2.866-2.656-2.245-4.516l17.703-52.793 15.816-19.695c1.235-1.535 1.727-1.266 1.11.598l-22.508 67.14a3.58 3.58 0 0 0 2.246 4.516l35.465 11.887c1.863.628 2.375 2.386 1.148 3.914Zm0 0"/><path fill="#60c8f3" d="M32.36 222.77a5.35 5.35 0 0 1-5.113-6.918l12.116-39.477a5.346 5.346 0 0 1 6.684-3.543 5.345 5.345 0 0 1 3.539 6.68l-12.117 39.476a5.348 5.348 0 0 1-5.11 3.782ZM243.488 288.61a5.349 5.349 0 0 1-5.113-6.918l12.117-39.477a5.347 5.347 0 1 1 10.223 3.137l-12.117 39.48a5.349 5.349 0 0 1-5.11 3.777ZM316.758 263.824c-.52 0-1.047-.078-1.57-.238a5.346 5.346 0 0 1-3.543-6.68l12.12-39.48a5.35 5.35 0 0 1 6.68-3.543 5.349 5.349 0 0 1 3.543 6.683l-12.12 39.477a5.349 5.349 0 0 1-5.11 3.781ZM278.262 328.086a5.349 5.349 0 0 1-5.113-6.918l12.12-39.477a5.35 5.35 0 0 1 6.68-3.543 5.349 5.349 0 0 1 3.543 6.684l-12.12 39.477a5.349 5.349 0 0 1-5.11 3.777Zm0 0"/><g clip-path="url(#e)"><path fill="#60c8f3" d="M187.371 347.828a5.349 5.349 0 0 1-5.113-6.922l12.12-39.476a5.35 5.35 0 0 1 6.68-3.543 5.349 5.349 0 0 1 3.544 6.683l-12.122 39.477a5.349 5.349 0 0 1-5.109 3.781Zm0 0"/></g><path fill="#60c8f3" d="M109.395 328.086a5.349 5.349 0 0 1-5.113-6.918l12.12-39.477a5.346 5.346 0 1 1 10.223 3.141l-12.121 39.477a5.349 5.349 0 0 1-5.11 3.777ZM44.477 298.395c-.52 0-1.047-.079-1.57-.239a5.349 5.349 0 0 1-3.544-6.683l12.121-39.477a5.348 5.348 0 1 1 10.223 3.14l-12.121 39.477a5.345 5.345 0 0 1-5.11 3.782ZM91.824 250.156a5.35 5.35 0 0 1-5.113-6.918l12.121-39.48a5.35 5.35 0 0 1 6.68-3.543 5.349 5.349 0 0 1 3.543 6.683l-12.121 39.477a5.345 5.345 0 0 1-5.11 3.781Zm0 0"/></svg>